<mxfile host="app.diagrams.net" agent="Mozilla/5.0 (Windows NT 10.0; Win64; x64) AppleWebKit/537.36 (KHTML, like Gecko) Chrome/132.0.0.0 Safari/537.36" version="26.0.11">
  <diagram name="Page-1" id="3dJtP6y-i1VXrLTv7_gE">
    <mxGraphModel dx="1707" dy="1637" grid="1" gridSize="10" guides="1" tooltips="1" connect="1" arrows="1" fold="1" page="1" pageScale="1" pageWidth="827" pageHeight="1169" math="0" shadow="0">
      <root>
        <mxCell id="0" />
        <mxCell id="1" parent="0" />
        <mxCell id="N_ksLfpE83ziRZHWrcnd-1" value="&lt;h1&gt;Usuario&lt;/h1&gt;" style="rounded=1;whiteSpace=wrap;html=1;fillColor=#6a00ff;fontColor=#ffffff;strokeColor=#3700CC;" parent="1" vertex="1">
          <mxGeometry x="240" y="100" width="120" height="60" as="geometry" />
        </mxCell>
        <mxCell id="N_ksLfpE83ziRZHWrcnd-3" value="&lt;h1&gt;Livro&lt;/h1&gt;" style="rounded=1;whiteSpace=wrap;html=1;fillColor=#6a00ff;fontColor=#ffffff;strokeColor=#3700CC;" parent="1" vertex="1">
          <mxGeometry x="-370" y="-40" width="120" height="60" as="geometry" />
        </mxCell>
        <mxCell id="N_ksLfpE83ziRZHWrcnd-5" value="&lt;h1&gt;Armario&lt;/h1&gt;" style="rounded=1;whiteSpace=wrap;html=1;fillColor=#6a00ff;fontColor=#ffffff;strokeColor=#3700CC;" parent="1" vertex="1">
          <mxGeometry x="800" y="-150" width="120" height="60" as="geometry" />
        </mxCell>
        <mxCell id="N_ksLfpE83ziRZHWrcnd-7" value="&lt;h1&gt;Sala&lt;/h1&gt;" style="rounded=1;whiteSpace=wrap;html=1;fillColor=#6a00ff;fontColor=#ffffff;strokeColor=#3700CC;" parent="1" vertex="1">
          <mxGeometry x="780" y="150" width="120" height="60" as="geometry" />
        </mxCell>
        <mxCell id="N_ksLfpE83ziRZHWrcnd-8" value="&lt;u&gt;&lt;font style=&quot;font-size: 18px;&quot;&gt;Matricula&lt;/font&gt;&lt;/u&gt;" style="ellipse;whiteSpace=wrap;html=1;fillColor=#60a917;fontColor=#ffffff;strokeColor=#2D7600;" parent="1" vertex="1">
          <mxGeometry x="20" y="264" width="120" height="80" as="geometry" />
        </mxCell>
        <mxCell id="N_ksLfpE83ziRZHWrcnd-10" value="&lt;font style=&quot;font-size: 18px;&quot;&gt;Acesso&lt;/font&gt;" style="ellipse;whiteSpace=wrap;html=1;fillColor=#60a917;fontColor=#ffffff;strokeColor=#2D7600;" parent="1" vertex="1">
          <mxGeometry x="180" y="270" width="120" height="80" as="geometry" />
        </mxCell>
        <mxCell id="N_ksLfpE83ziRZHWrcnd-11" value="&lt;font style=&quot;font-size: 18px;&quot;&gt;Senha&lt;/font&gt;" style="ellipse;whiteSpace=wrap;html=1;fillColor=#60a917;fontColor=#ffffff;strokeColor=#2D7600;" parent="1" vertex="1">
          <mxGeometry x="320" y="280" width="120" height="80" as="geometry" />
        </mxCell>
        <mxCell id="N_ksLfpE83ziRZHWrcnd-12" value="&lt;u&gt;&lt;font style=&quot;font-size: 18px;&quot;&gt;ID&lt;/font&gt;&lt;/u&gt;" style="ellipse;whiteSpace=wrap;html=1;fillColor=#60a917;fontColor=#ffffff;strokeColor=#2D7600;" parent="1" vertex="1">
          <mxGeometry x="-720" y="-250" width="120" height="80" as="geometry" />
        </mxCell>
        <mxCell id="N_ksLfpE83ziRZHWrcnd-13" value="&lt;font style=&quot;font-size: 18px;&quot;&gt;Titulo&lt;/font&gt;" style="ellipse;whiteSpace=wrap;html=1;fillColor=#60a917;fontColor=#ffffff;strokeColor=#2D7600;" parent="1" vertex="1">
          <mxGeometry x="-720" y="-145" width="120" height="80" as="geometry" />
        </mxCell>
        <mxCell id="N_ksLfpE83ziRZHWrcnd-14" value="" style="ellipse;whiteSpace=wrap;html=1;fillColor=#000000;fontColor=#ffffff;strokeColor=#005700;" parent="1" vertex="1">
          <mxGeometry x="-720" y="-50" width="120" height="80" as="geometry" />
        </mxCell>
        <mxCell id="N_ksLfpE83ziRZHWrcnd-15" value="&lt;u&gt;&lt;font style=&quot;font-size: 18px;&quot;&gt;ID&lt;/font&gt;&lt;/u&gt;" style="ellipse;whiteSpace=wrap;html=1;fillColor=#60a917;fontColor=#ffffff;strokeColor=#2D7600;" parent="1" vertex="1">
          <mxGeometry x="1020" y="-230" width="120" height="80" as="geometry" />
        </mxCell>
        <mxCell id="N_ksLfpE83ziRZHWrcnd-16" value="&lt;font style=&quot;font-size: 18px;&quot;&gt;Vago&lt;/font&gt;" style="ellipse;whiteSpace=wrap;html=1;fillColor=#60a917;fontColor=#ffffff;strokeColor=#2D7600;" parent="1" vertex="1">
          <mxGeometry x="1020" y="-90" width="120" height="80" as="geometry" />
        </mxCell>
        <mxCell id="N_ksLfpE83ziRZHWrcnd-18" value="&lt;u&gt;&lt;font style=&quot;font-size: 18px;&quot;&gt;ID&lt;/font&gt;&lt;/u&gt;" style="ellipse;whiteSpace=wrap;html=1;fillColor=#60a917;fontColor=#ffffff;strokeColor=#2D7600;" parent="1" vertex="1">
          <mxGeometry x="1050" y="60" width="120" height="80" as="geometry" />
        </mxCell>
        <mxCell id="N_ksLfpE83ziRZHWrcnd-19" value="&lt;font style=&quot;font-size: 18px;&quot;&gt;Ocupado&lt;/font&gt;" style="ellipse;whiteSpace=wrap;html=1;fillColor=#60a917;fontColor=#ffffff;strokeColor=#2D7600;" parent="1" vertex="1">
          <mxGeometry x="1050" y="230" width="120" height="80" as="geometry" />
        </mxCell>
        <mxCell id="N_ksLfpE83ziRZHWrcnd-21" value="" style="endArrow=none;html=1;rounded=0;entryX=0.5;entryY=0;entryDx=0;entryDy=0;exitX=0;exitY=1;exitDx=0;exitDy=0;" parent="1" source="N_ksLfpE83ziRZHWrcnd-1" target="N_ksLfpE83ziRZHWrcnd-8" edge="1">
          <mxGeometry width="50" height="50" relative="1" as="geometry">
            <mxPoint x="590" y="280" as="sourcePoint" />
            <mxPoint x="640" y="230" as="targetPoint" />
          </mxGeometry>
        </mxCell>
        <mxCell id="N_ksLfpE83ziRZHWrcnd-22" value="" style="endArrow=none;html=1;rounded=0;entryX=0.5;entryY=0;entryDx=0;entryDy=0;exitX=0.25;exitY=1;exitDx=0;exitDy=0;" parent="1" source="N_ksLfpE83ziRZHWrcnd-1" target="N_ksLfpE83ziRZHWrcnd-10" edge="1">
          <mxGeometry width="50" height="50" relative="1" as="geometry">
            <mxPoint x="210" y="200" as="sourcePoint" />
            <mxPoint x="640" y="230" as="targetPoint" />
          </mxGeometry>
        </mxCell>
        <mxCell id="N_ksLfpE83ziRZHWrcnd-23" value="" style="endArrow=none;html=1;rounded=0;entryX=0.5;entryY=0;entryDx=0;entryDy=0;exitX=0.75;exitY=1;exitDx=0;exitDy=0;" parent="1" source="N_ksLfpE83ziRZHWrcnd-1" target="N_ksLfpE83ziRZHWrcnd-11" edge="1">
          <mxGeometry width="50" height="50" relative="1" as="geometry">
            <mxPoint x="270" y="200" as="sourcePoint" />
            <mxPoint x="640" y="230" as="targetPoint" />
          </mxGeometry>
        </mxCell>
        <mxCell id="N_ksLfpE83ziRZHWrcnd-24" value="" style="endArrow=none;html=1;rounded=0;entryX=1;entryY=0.25;entryDx=0;entryDy=0;exitX=0;exitY=0.5;exitDx=0;exitDy=0;" parent="1" source="N_ksLfpE83ziRZHWrcnd-15" target="N_ksLfpE83ziRZHWrcnd-5" edge="1">
          <mxGeometry width="50" height="50" relative="1" as="geometry">
            <mxPoint x="590" y="-40" as="sourcePoint" />
            <mxPoint x="640" y="-90" as="targetPoint" />
          </mxGeometry>
        </mxCell>
        <mxCell id="N_ksLfpE83ziRZHWrcnd-25" value="" style="endArrow=none;html=1;rounded=0;entryX=1;entryY=0.75;entryDx=0;entryDy=0;exitX=0;exitY=0.5;exitDx=0;exitDy=0;" parent="1" source="N_ksLfpE83ziRZHWrcnd-16" target="N_ksLfpE83ziRZHWrcnd-5" edge="1">
          <mxGeometry width="50" height="50" relative="1" as="geometry">
            <mxPoint x="590" y="-40" as="sourcePoint" />
            <mxPoint x="640" y="-90" as="targetPoint" />
          </mxGeometry>
        </mxCell>
        <mxCell id="N_ksLfpE83ziRZHWrcnd-27" value="" style="endArrow=none;html=1;rounded=0;entryX=1;entryY=0.5;entryDx=0;entryDy=0;exitX=0;exitY=0;exitDx=0;exitDy=0;" parent="1" source="N_ksLfpE83ziRZHWrcnd-3" target="N_ksLfpE83ziRZHWrcnd-12" edge="1">
          <mxGeometry width="50" height="50" relative="1" as="geometry">
            <mxPoint x="-80" y="40" as="sourcePoint" />
            <mxPoint x="-30" y="-10" as="targetPoint" />
          </mxGeometry>
        </mxCell>
        <mxCell id="N_ksLfpE83ziRZHWrcnd-28" value="" style="endArrow=none;html=1;rounded=0;entryX=1;entryY=0.5;entryDx=0;entryDy=0;exitX=0;exitY=0.25;exitDx=0;exitDy=0;" parent="1" source="N_ksLfpE83ziRZHWrcnd-3" target="N_ksLfpE83ziRZHWrcnd-13" edge="1">
          <mxGeometry width="50" height="50" relative="1" as="geometry">
            <mxPoint x="-80" y="40" as="sourcePoint" />
            <mxPoint x="-30" y="-10" as="targetPoint" />
          </mxGeometry>
        </mxCell>
        <mxCell id="N_ksLfpE83ziRZHWrcnd-29" value="" style="endArrow=none;html=1;rounded=0;entryX=1;entryY=0.5;entryDx=0;entryDy=0;exitX=0;exitY=0.5;exitDx=0;exitDy=0;" parent="1" source="N_ksLfpE83ziRZHWrcnd-3" target="N_ksLfpE83ziRZHWrcnd-14" edge="1">
          <mxGeometry width="50" height="50" relative="1" as="geometry">
            <mxPoint x="-80" y="40" as="sourcePoint" />
            <mxPoint x="-30" y="-10" as="targetPoint" />
          </mxGeometry>
        </mxCell>
        <mxCell id="N_ksLfpE83ziRZHWrcnd-30" value="" style="endArrow=none;html=1;rounded=0;entryX=0;entryY=0.5;entryDx=0;entryDy=0;exitX=1;exitY=0.25;exitDx=0;exitDy=0;" parent="1" source="N_ksLfpE83ziRZHWrcnd-7" target="N_ksLfpE83ziRZHWrcnd-18" edge="1">
          <mxGeometry width="50" height="50" relative="1" as="geometry">
            <mxPoint x="550" y="250" as="sourcePoint" />
            <mxPoint x="600" y="200" as="targetPoint" />
          </mxGeometry>
        </mxCell>
        <mxCell id="N_ksLfpE83ziRZHWrcnd-31" value="" style="endArrow=none;html=1;rounded=0;entryX=0;entryY=0.5;entryDx=0;entryDy=0;exitX=1;exitY=0.75;exitDx=0;exitDy=0;" parent="1" source="N_ksLfpE83ziRZHWrcnd-7" target="N_ksLfpE83ziRZHWrcnd-19" edge="1">
          <mxGeometry width="50" height="50" relative="1" as="geometry">
            <mxPoint x="550" y="250" as="sourcePoint" />
            <mxPoint x="600" y="200" as="targetPoint" />
          </mxGeometry>
        </mxCell>
        <mxCell id="N_ksLfpE83ziRZHWrcnd-33" value="&lt;font style=&quot;font-size: 14px;&quot;&gt;Quantidade_total&lt;/font&gt;" style="ellipse;whiteSpace=wrap;html=1;fillColor=#60a917;fontColor=#ffffff;strokeColor=#2D7600;" parent="1" vertex="1">
          <mxGeometry x="-720" y="50" width="120" height="80" as="geometry" />
        </mxCell>
        <mxCell id="N_ksLfpE83ziRZHWrcnd-34" value="&lt;font style=&quot;font-size: 13px; color: rgb(255, 255, 255);&quot;&gt;Quantidade_&lt;/font&gt;&lt;div&gt;&lt;font style=&quot;font-size: 13px; color: rgb(255, 255, 255);&quot;&gt;disponivel&lt;span style=&quot;background-color: transparent;&quot;&gt;_&lt;/span&gt;&lt;/font&gt;&lt;/div&gt;&lt;div&gt;&lt;span style=&quot;background-color: transparent;&quot;&gt;&lt;font style=&quot;font-size: 13px; color: rgb(255, 255, 255);&quot;&gt;para_emprestimo&lt;/font&gt;&lt;/span&gt;&lt;/div&gt;" style="ellipse;whiteSpace=wrap;html=1;fillColor=#60a917;fontColor=#ffffff;strokeColor=#2D7600;" parent="1" vertex="1">
          <mxGeometry x="-720" y="150" width="120" height="80" as="geometry" />
        </mxCell>
        <mxCell id="N_ksLfpE83ziRZHWrcnd-35" value="" style="endArrow=none;html=1;rounded=0;exitX=1;exitY=0.5;exitDx=0;exitDy=0;entryX=0;entryY=0.75;entryDx=0;entryDy=0;" parent="1" source="N_ksLfpE83ziRZHWrcnd-33" target="N_ksLfpE83ziRZHWrcnd-3" edge="1">
          <mxGeometry width="50" height="50" relative="1" as="geometry">
            <mxPoint x="-80" y="140" as="sourcePoint" />
            <mxPoint x="-350" y="40" as="targetPoint" />
          </mxGeometry>
        </mxCell>
        <mxCell id="N_ksLfpE83ziRZHWrcnd-36" value="" style="endArrow=none;html=1;rounded=0;entryX=0;entryY=1;entryDx=0;entryDy=0;exitX=1;exitY=0.5;exitDx=0;exitDy=0;" parent="1" source="N_ksLfpE83ziRZHWrcnd-34" target="N_ksLfpE83ziRZHWrcnd-3" edge="1">
          <mxGeometry width="50" height="50" relative="1" as="geometry">
            <mxPoint x="-80" y="140" as="sourcePoint" />
            <mxPoint x="-30" y="90" as="targetPoint" />
          </mxGeometry>
        </mxCell>
        <mxCell id="Su40AZW9ZEb9RB4IF4B--2" value="&lt;font style=&quot;font-size: 18px;&quot;&gt;ID_turma&lt;/font&gt;" style="ellipse;whiteSpace=wrap;html=1;fillColor=#60a917;fontColor=#ffffff;strokeColor=#2D7600;" parent="1" vertex="1">
          <mxGeometry x="460" y="264" width="120" height="80" as="geometry" />
        </mxCell>
        <mxCell id="Su40AZW9ZEb9RB4IF4B--3" value="" style="endArrow=none;html=1;rounded=0;entryX=1;entryY=1;entryDx=0;entryDy=0;exitX=0.5;exitY=0;exitDx=0;exitDy=0;" parent="1" source="Su40AZW9ZEb9RB4IF4B--2" target="N_ksLfpE83ziRZHWrcnd-1" edge="1">
          <mxGeometry width="50" height="50" relative="1" as="geometry">
            <mxPoint x="330" y="220" as="sourcePoint" />
            <mxPoint x="380" y="170" as="targetPoint" />
          </mxGeometry>
        </mxCell>
        <mxCell id="Su40AZW9ZEb9RB4IF4B--4" value="&lt;h1&gt;Turma&lt;/h1&gt;" style="rounded=1;whiteSpace=wrap;html=1;fillColor=#6a00ff;strokeColor=#3700CC;fontColor=#ffffff;" parent="1" vertex="1">
          <mxGeometry x="240" y="-275" width="120" height="60" as="geometry" />
        </mxCell>
        <mxCell id="Su40AZW9ZEb9RB4IF4B--5" value="&lt;u&gt;&lt;font style=&quot;font-size: 18px;&quot;&gt;ID&lt;/font&gt;&lt;/u&gt;" style="ellipse;whiteSpace=wrap;html=1;fillColor=#60a917;fontColor=#ffffff;strokeColor=#2D7600;" parent="1" vertex="1">
          <mxGeometry y="-465" width="120" height="80" as="geometry" />
        </mxCell>
        <mxCell id="Su40AZW9ZEb9RB4IF4B--6" value="&lt;font style=&quot;font-size: 18px;&quot;&gt;ID_curso&lt;/font&gt;" style="ellipse;whiteSpace=wrap;html=1;fillColor=#60a917;fontColor=#ffffff;strokeColor=#2D7600;" parent="1" vertex="1">
          <mxGeometry x="120" y="-465" width="120" height="80" as="geometry" />
        </mxCell>
        <mxCell id="Su40AZW9ZEb9RB4IF4B--7" value="&lt;font style=&quot;font-size: 16px;&quot;&gt;ID_modalidade&lt;/font&gt;" style="ellipse;whiteSpace=wrap;html=1;fillColor=#60a917;fontColor=#ffffff;strokeColor=#2D7600;" parent="1" vertex="1">
          <mxGeometry x="240" y="-465" width="120" height="80" as="geometry" />
        </mxCell>
        <mxCell id="Su40AZW9ZEb9RB4IF4B--8" value="Ano_inicio" style="ellipse;whiteSpace=wrap;html=1;fontSize=18;fillColor=#60a917;fontColor=#ffffff;strokeColor=#2D7600;" parent="1" vertex="1">
          <mxGeometry x="360" y="-465" width="120" height="80" as="geometry" />
        </mxCell>
        <mxCell id="Su40AZW9ZEb9RB4IF4B--9" value="&lt;font style=&quot;font-size: 16px;&quot;&gt;Ano_conclusao&lt;/font&gt;" style="ellipse;whiteSpace=wrap;html=1;fontSize=18;fillColor=#60a917;strokeColor=#2D7600;fontColor=#ffffff;" parent="1" vertex="1">
          <mxGeometry x="480" y="-465" width="120" height="80" as="geometry" />
        </mxCell>
        <mxCell id="Su40AZW9ZEb9RB4IF4B--10" value="" style="endArrow=none;html=1;rounded=0;entryX=0.5;entryY=1;entryDx=0;entryDy=0;exitX=0;exitY=0;exitDx=0;exitDy=0;" parent="1" source="Su40AZW9ZEb9RB4IF4B--4" target="Su40AZW9ZEb9RB4IF4B--5" edge="1">
          <mxGeometry width="50" height="50" relative="1" as="geometry">
            <mxPoint x="260" y="-345" as="sourcePoint" />
            <mxPoint x="310" y="-395" as="targetPoint" />
          </mxGeometry>
        </mxCell>
        <mxCell id="Su40AZW9ZEb9RB4IF4B--11" value="" style="endArrow=none;html=1;rounded=0;entryX=0.5;entryY=1;entryDx=0;entryDy=0;exitX=1;exitY=0;exitDx=0;exitDy=0;" parent="1" source="Su40AZW9ZEb9RB4IF4B--4" target="Su40AZW9ZEb9RB4IF4B--9" edge="1">
          <mxGeometry width="50" height="50" relative="1" as="geometry">
            <mxPoint x="260" y="-345" as="sourcePoint" />
            <mxPoint x="310" y="-395" as="targetPoint" />
          </mxGeometry>
        </mxCell>
        <mxCell id="Su40AZW9ZEb9RB4IF4B--12" value="" style="endArrow=none;html=1;rounded=0;entryX=0.5;entryY=1;entryDx=0;entryDy=0;exitX=0.25;exitY=0;exitDx=0;exitDy=0;" parent="1" source="Su40AZW9ZEb9RB4IF4B--4" target="Su40AZW9ZEb9RB4IF4B--6" edge="1">
          <mxGeometry width="50" height="50" relative="1" as="geometry">
            <mxPoint x="260" y="-345" as="sourcePoint" />
            <mxPoint x="310" y="-395" as="targetPoint" />
          </mxGeometry>
        </mxCell>
        <mxCell id="Su40AZW9ZEb9RB4IF4B--13" value="" style="endArrow=none;html=1;rounded=0;entryX=0.5;entryY=1;entryDx=0;entryDy=0;exitX=0.75;exitY=0;exitDx=0;exitDy=0;" parent="1" source="Su40AZW9ZEb9RB4IF4B--4" target="Su40AZW9ZEb9RB4IF4B--8" edge="1">
          <mxGeometry width="50" height="50" relative="1" as="geometry">
            <mxPoint x="260" y="-345" as="sourcePoint" />
            <mxPoint x="310" y="-395" as="targetPoint" />
          </mxGeometry>
        </mxCell>
        <mxCell id="Su40AZW9ZEb9RB4IF4B--14" value="" style="endArrow=none;html=1;rounded=0;entryX=0.5;entryY=1;entryDx=0;entryDy=0;exitX=0.5;exitY=0;exitDx=0;exitDy=0;" parent="1" source="Su40AZW9ZEb9RB4IF4B--4" target="Su40AZW9ZEb9RB4IF4B--7" edge="1">
          <mxGeometry width="50" height="50" relative="1" as="geometry">
            <mxPoint x="260" y="-345" as="sourcePoint" />
            <mxPoint x="310" y="-395" as="targetPoint" />
          </mxGeometry>
        </mxCell>
        <mxCell id="Su40AZW9ZEb9RB4IF4B--15" value="&lt;h1&gt;Curso&lt;/h1&gt;" style="rounded=1;whiteSpace=wrap;html=1;fillColor=#6a00ff;fontColor=#ffffff;strokeColor=#3700CC;" parent="1" vertex="1">
          <mxGeometry x="-430" y="-230" width="120" height="60" as="geometry" />
        </mxCell>
        <mxCell id="Su40AZW9ZEb9RB4IF4B--16" value="&lt;u&gt;&lt;font style=&quot;font-size: 18px;&quot;&gt;ID&lt;/font&gt;&lt;/u&gt;" style="ellipse;whiteSpace=wrap;html=1;fillColor=#60a917;fontColor=#ffffff;strokeColor=#2D7600;" parent="1" vertex="1">
          <mxGeometry x="-540" y="-380" width="120" height="80" as="geometry" />
        </mxCell>
        <mxCell id="Su40AZW9ZEb9RB4IF4B--17" value="&lt;font style=&quot;font-size: 18px;&quot;&gt;Nome&lt;/font&gt;" style="ellipse;whiteSpace=wrap;html=1;fillColor=#60a917;fontColor=#ffffff;strokeColor=#2D7600;" parent="1" vertex="1">
          <mxGeometry x="-310" y="-380" width="120" height="80" as="geometry" />
        </mxCell>
        <mxCell id="Su40AZW9ZEb9RB4IF4B--18" value="" style="endArrow=none;html=1;rounded=0;exitX=1;exitY=0;exitDx=0;exitDy=0;" parent="1" source="Su40AZW9ZEb9RB4IF4B--15" target="Su40AZW9ZEb9RB4IF4B--17" edge="1">
          <mxGeometry width="50" height="50" relative="1" as="geometry">
            <mxPoint x="-240" y="-140" as="sourcePoint" />
            <mxPoint x="-190" y="-190" as="targetPoint" />
          </mxGeometry>
        </mxCell>
        <mxCell id="Su40AZW9ZEb9RB4IF4B--19" value="" style="endArrow=none;html=1;rounded=0;exitX=0;exitY=0;exitDx=0;exitDy=0;" parent="1" source="Su40AZW9ZEb9RB4IF4B--15" target="Su40AZW9ZEb9RB4IF4B--16" edge="1">
          <mxGeometry width="50" height="50" relative="1" as="geometry">
            <mxPoint x="-240" y="-140" as="sourcePoint" />
            <mxPoint x="-190" y="-190" as="targetPoint" />
          </mxGeometry>
        </mxCell>
        <mxCell id="Su40AZW9ZEb9RB4IF4B--20" value="&lt;h1&gt;Modalidade&lt;/h1&gt;" style="rounded=1;whiteSpace=wrap;html=1;fillColor=#6a00ff;fontColor=#ffffff;strokeColor=#3700CC;" parent="1" vertex="1">
          <mxGeometry x="-290" y="-540" width="150" height="60" as="geometry" />
        </mxCell>
        <mxCell id="Su40AZW9ZEb9RB4IF4B--21" value="&lt;u&gt;&lt;font style=&quot;font-size: 18px;&quot;&gt;ID&lt;/font&gt;&lt;/u&gt;" style="ellipse;whiteSpace=wrap;html=1;fillColor=#60a917;fontColor=#ffffff;strokeColor=#2D7600;" parent="1" vertex="1">
          <mxGeometry x="-115" y="-670" width="120" height="80" as="geometry" />
        </mxCell>
        <mxCell id="Su40AZW9ZEb9RB4IF4B--22" value="&lt;font style=&quot;font-size: 18px;&quot;&gt;Nome&lt;/font&gt;" style="ellipse;whiteSpace=wrap;html=1;fillColor=#60a917;fontColor=#ffffff;strokeColor=#2D7600;" parent="1" vertex="1">
          <mxGeometry x="-430" y="-664" width="120" height="80" as="geometry" />
        </mxCell>
        <mxCell id="Su40AZW9ZEb9RB4IF4B--23" value="" style="endArrow=none;html=1;rounded=0;entryX=0;entryY=1;entryDx=0;entryDy=0;exitX=1;exitY=0;exitDx=0;exitDy=0;" parent="1" source="Su40AZW9ZEb9RB4IF4B--20" target="Su40AZW9ZEb9RB4IF4B--21" edge="1">
          <mxGeometry width="50" height="50" relative="1" as="geometry">
            <mxPoint x="-250" y="-570" as="sourcePoint" />
            <mxPoint x="-200" y="-620" as="targetPoint" />
          </mxGeometry>
        </mxCell>
        <mxCell id="Su40AZW9ZEb9RB4IF4B--24" value="" style="endArrow=none;html=1;rounded=0;entryX=1;entryY=1;entryDx=0;entryDy=0;exitX=0;exitY=0;exitDx=0;exitDy=0;" parent="1" source="Su40AZW9ZEb9RB4IF4B--20" target="Su40AZW9ZEb9RB4IF4B--22" edge="1">
          <mxGeometry width="50" height="50" relative="1" as="geometry">
            <mxPoint x="-250" y="-570" as="sourcePoint" />
            <mxPoint x="-200" y="-620" as="targetPoint" />
          </mxGeometry>
        </mxCell>
        <mxCell id="Su40AZW9ZEb9RB4IF4B--25" value="&lt;h1&gt;Genero&lt;/h1&gt;" style="rounded=1;whiteSpace=wrap;html=1;fillColor=#6a00ff;fontColor=#ffffff;strokeColor=#3700CC;" parent="1" vertex="1">
          <mxGeometry x="-370" y="430" width="120" height="60" as="geometry" />
        </mxCell>
        <mxCell id="Su40AZW9ZEb9RB4IF4B--26" value="&lt;u&gt;&lt;font style=&quot;font-size: 18px;&quot;&gt;ID&lt;/font&gt;&lt;/u&gt;" style="ellipse;whiteSpace=wrap;html=1;fillColor=#60a917;fontColor=#ffffff;strokeColor=#2D7600;" parent="1" vertex="1">
          <mxGeometry x="-550" y="580" width="120" height="80" as="geometry" />
        </mxCell>
        <mxCell id="Su40AZW9ZEb9RB4IF4B--27" value="&lt;font style=&quot;font-size: 18px;&quot;&gt;Nome&lt;/font&gt;" style="ellipse;whiteSpace=wrap;html=1;fillColor=#60a917;fontColor=#ffffff;strokeColor=#2D7600;" parent="1" vertex="1">
          <mxGeometry x="-210" y="580" width="120" height="80" as="geometry" />
        </mxCell>
        <mxCell id="Su40AZW9ZEb9RB4IF4B--28" value="" style="endArrow=none;html=1;rounded=0;entryX=0;entryY=1;entryDx=0;entryDy=0;exitX=1;exitY=0;exitDx=0;exitDy=0;" parent="1" source="Su40AZW9ZEb9RB4IF4B--26" target="Su40AZW9ZEb9RB4IF4B--25" edge="1">
          <mxGeometry width="50" height="50" relative="1" as="geometry">
            <mxPoint x="-300" y="410" as="sourcePoint" />
            <mxPoint x="-250" y="360" as="targetPoint" />
          </mxGeometry>
        </mxCell>
        <mxCell id="Su40AZW9ZEb9RB4IF4B--29" value="" style="endArrow=none;html=1;rounded=0;entryX=1;entryY=1;entryDx=0;entryDy=0;exitX=0;exitY=0;exitDx=0;exitDy=0;" parent="1" source="Su40AZW9ZEb9RB4IF4B--27" target="Su40AZW9ZEb9RB4IF4B--25" edge="1">
          <mxGeometry width="50" height="50" relative="1" as="geometry">
            <mxPoint x="-300" y="410" as="sourcePoint" />
            <mxPoint x="-250" y="360" as="targetPoint" />
          </mxGeometry>
        </mxCell>
        <mxCell id="Su40AZW9ZEb9RB4IF4B--32" value="&lt;font style=&quot;font-size: 18px;&quot;&gt;ID_Genero&lt;/font&gt;" style="ellipse;whiteSpace=wrap;html=1;fillColor=#60a917;fontColor=#ffffff;strokeColor=#2D7600;" parent="1" vertex="1">
          <mxGeometry x="-715" y="-45" width="110" height="70" as="geometry" />
        </mxCell>
        <mxCell id="Su40AZW9ZEb9RB4IF4B--38" value="Vinculado" style="html=1;whiteSpace=wrap;aspect=fixed;shape=isoRectangle;fontSize=18;fillColor=#647687;fontColor=#ffffff;strokeColor=#314354;" parent="1" vertex="1">
          <mxGeometry x="225" y="-110" width="150" height="90" as="geometry" />
        </mxCell>
        <mxCell id="Su40AZW9ZEb9RB4IF4B--39" value="" style="endArrow=none;html=1;rounded=0;exitX=0.503;exitY=1.01;exitDx=0;exitDy=0;exitPerimeter=0;entryX=0.5;entryY=0;entryDx=0;entryDy=0;" parent="1" source="Su40AZW9ZEb9RB4IF4B--38" target="N_ksLfpE83ziRZHWrcnd-1" edge="1">
          <mxGeometry relative="1" as="geometry">
            <mxPoint x="360" y="50" as="sourcePoint" />
            <mxPoint x="520" y="50" as="targetPoint" />
          </mxGeometry>
        </mxCell>
        <mxCell id="IceixqH_sG8gBFxUhl5R-1" value="" style="endArrow=none;html=1;rounded=0;entryX=0.5;entryY=1;entryDx=0;entryDy=0;exitX=0.5;exitY=0;exitDx=0;exitDy=0;exitPerimeter=0;" parent="1" source="Su40AZW9ZEb9RB4IF4B--38" target="Su40AZW9ZEb9RB4IF4B--4" edge="1">
          <mxGeometry width="50" height="50" relative="1" as="geometry">
            <mxPoint x="490" y="-50" as="sourcePoint" />
            <mxPoint x="540" y="-100" as="targetPoint" />
          </mxGeometry>
        </mxCell>
        <mxCell id="IceixqH_sG8gBFxUhl5R-9" value="&lt;font style=&quot;font-size: 18px;&quot;&gt;Ocupa&lt;/font&gt;" style="html=1;whiteSpace=wrap;aspect=fixed;shape=isoRectangle;fillColor=#647687;fontColor=#ffffff;strokeColor=#314354;" parent="1" vertex="1">
          <mxGeometry x="545" y="-20" width="150" height="90" as="geometry" />
        </mxCell>
        <mxCell id="IceixqH_sG8gBFxUhl5R-10" value="" style="endArrow=none;html=1;rounded=0;entryX=0;entryY=0;entryDx=0;entryDy=0;exitX=0.687;exitY=0.789;exitDx=0;exitDy=0;exitPerimeter=0;" parent="1" source="IceixqH_sG8gBFxUhl5R-9" target="N_ksLfpE83ziRZHWrcnd-7" edge="1">
          <mxGeometry width="50" height="50" relative="1" as="geometry">
            <mxPoint x="680" y="100" as="sourcePoint" />
            <mxPoint x="730" y="50" as="targetPoint" />
          </mxGeometry>
        </mxCell>
        <mxCell id="IceixqH_sG8gBFxUhl5R-11" value="" style="endArrow=none;html=1;rounded=0;exitX=0;exitY=1;exitDx=0;exitDy=0;entryX=0.749;entryY=0.226;entryDx=0;entryDy=0;entryPerimeter=0;" parent="1" source="N_ksLfpE83ziRZHWrcnd-5" target="IceixqH_sG8gBFxUhl5R-9" edge="1">
          <mxGeometry width="50" height="50" relative="1" as="geometry">
            <mxPoint x="680" y="100" as="sourcePoint" />
            <mxPoint x="730" y="50" as="targetPoint" />
          </mxGeometry>
        </mxCell>
        <mxCell id="IceixqH_sG8gBFxUhl5R-12" value="" style="endArrow=none;html=1;rounded=0;exitX=1;exitY=0;exitDx=0;exitDy=0;entryX=0.002;entryY=0.507;entryDx=0;entryDy=0;entryPerimeter=0;" parent="1" source="N_ksLfpE83ziRZHWrcnd-1" target="IceixqH_sG8gBFxUhl5R-9" edge="1">
          <mxGeometry width="50" height="50" relative="1" as="geometry">
            <mxPoint x="680" y="100" as="sourcePoint" />
            <mxPoint x="520" y="50" as="targetPoint" />
          </mxGeometry>
        </mxCell>
        <mxCell id="IceixqH_sG8gBFxUhl5R-13" value="&lt;font style=&quot;font-size: 18px;&quot;&gt;Retira&lt;/font&gt;" style="html=1;whiteSpace=wrap;aspect=fixed;shape=isoRectangle;fillColor=#647687;fontColor=#ffffff;strokeColor=#314354;" parent="1" vertex="1">
          <mxGeometry x="-110" y="25" width="150" height="90" as="geometry" />
        </mxCell>
        <mxCell id="IceixqH_sG8gBFxUhl5R-14" value="" style="endArrow=none;html=1;rounded=0;entryX=0;entryY=0;entryDx=0;entryDy=0;exitX=0.989;exitY=0.483;exitDx=0;exitDy=0;exitPerimeter=0;" parent="1" source="IceixqH_sG8gBFxUhl5R-13" target="N_ksLfpE83ziRZHWrcnd-1" edge="1">
          <mxGeometry width="50" height="50" relative="1" as="geometry">
            <mxPoint x="100" y="90" as="sourcePoint" />
            <mxPoint x="150" y="40" as="targetPoint" />
          </mxGeometry>
        </mxCell>
        <mxCell id="IceixqH_sG8gBFxUhl5R-15" value="" style="endArrow=none;html=1;rounded=0;entryX=-0.008;entryY=0.49;entryDx=0;entryDy=0;entryPerimeter=0;exitX=1;exitY=1;exitDx=0;exitDy=0;" parent="1" source="N_ksLfpE83ziRZHWrcnd-3" target="IceixqH_sG8gBFxUhl5R-13" edge="1">
          <mxGeometry width="50" height="50" relative="1" as="geometry">
            <mxPoint x="140" y="170" as="sourcePoint" />
            <mxPoint x="190" y="120" as="targetPoint" />
          </mxGeometry>
        </mxCell>
        <mxCell id="IceixqH_sG8gBFxUhl5R-16" value="&lt;font style=&quot;font-size: 18px;&quot;&gt;Tem&lt;/font&gt;" style="html=1;whiteSpace=wrap;aspect=fixed;shape=isoRectangle;fillColor=#647687;fontColor=#ffffff;strokeColor=#314354;" parent="1" vertex="1">
          <mxGeometry x="-385" y="200" width="150" height="90" as="geometry" />
        </mxCell>
        <mxCell id="IceixqH_sG8gBFxUhl5R-17" value="" style="endArrow=none;html=1;rounded=0;entryX=0.5;entryY=1;entryDx=0;entryDy=0;" parent="1" source="IceixqH_sG8gBFxUhl5R-16" target="N_ksLfpE83ziRZHWrcnd-3" edge="1">
          <mxGeometry width="50" height="50" relative="1" as="geometry">
            <mxPoint x="-30" y="280" as="sourcePoint" />
            <mxPoint x="20" y="230" as="targetPoint" />
          </mxGeometry>
        </mxCell>
        <mxCell id="IceixqH_sG8gBFxUhl5R-18" value="" style="endArrow=none;html=1;rounded=0;entryX=0.5;entryY=1;entryDx=0;entryDy=0;entryPerimeter=0;exitX=0.5;exitY=0;exitDx=0;exitDy=0;" parent="1" source="Su40AZW9ZEb9RB4IF4B--25" target="IceixqH_sG8gBFxUhl5R-16" edge="1">
          <mxGeometry width="50" height="50" relative="1" as="geometry">
            <mxPoint x="-30" y="280" as="sourcePoint" />
            <mxPoint x="20" y="230" as="targetPoint" />
          </mxGeometry>
        </mxCell>
        <mxCell id="IceixqH_sG8gBFxUhl5R-19" value="&lt;font style=&quot;font-size: 18px;&quot;&gt;Possui&lt;/font&gt;" style="html=1;whiteSpace=wrap;aspect=fixed;shape=isoRectangle;fillColor=#647687;fontColor=#ffffff;strokeColor=#314354;" parent="1" vertex="1">
          <mxGeometry x="-130" y="-320" width="150" height="90" as="geometry" />
        </mxCell>
        <mxCell id="IceixqH_sG8gBFxUhl5R-20" value="" style="endArrow=none;html=1;rounded=0;entryX=0;entryY=0.5;entryDx=0;entryDy=0;exitX=0.987;exitY=0.497;exitDx=0;exitDy=0;exitPerimeter=0;" parent="1" source="IceixqH_sG8gBFxUhl5R-19" target="Su40AZW9ZEb9RB4IF4B--4" edge="1">
          <mxGeometry width="50" height="50" relative="1" as="geometry">
            <mxPoint x="30" y="-280" as="sourcePoint" />
            <mxPoint x="80" y="-330" as="targetPoint" />
          </mxGeometry>
        </mxCell>
        <mxCell id="IceixqH_sG8gBFxUhl5R-21" value="" style="endArrow=none;html=1;rounded=0;entryX=1;entryY=0.5;entryDx=0;entryDy=0;exitX=0.287;exitY=0.788;exitDx=0;exitDy=0;exitPerimeter=0;" parent="1" source="IceixqH_sG8gBFxUhl5R-19" target="Su40AZW9ZEb9RB4IF4B--15" edge="1">
          <mxGeometry width="50" height="50" relative="1" as="geometry">
            <mxPoint x="-150" y="-121.9387755102041" as="sourcePoint" />
            <mxPoint x="60" y="-142.5" as="targetPoint" />
          </mxGeometry>
        </mxCell>
        <mxCell id="IceixqH_sG8gBFxUhl5R-22" value="" style="endArrow=none;html=1;rounded=0;entryX=0.5;entryY=1;entryDx=0;entryDy=0;exitX=0.299;exitY=0.182;exitDx=0;exitDy=0;exitPerimeter=0;" parent="1" source="IceixqH_sG8gBFxUhl5R-19" target="Su40AZW9ZEb9RB4IF4B--20" edge="1">
          <mxGeometry width="50" height="50" relative="1" as="geometry">
            <mxPoint x="200" y="-210" as="sourcePoint" />
            <mxPoint x="250" y="-260" as="targetPoint" />
          </mxGeometry>
        </mxCell>
        <mxCell id="ZdWaQ46oYQcRzxQLmsZE-1" value="(1, 1)" style="text;html=1;align=center;verticalAlign=middle;whiteSpace=wrap;rounded=0;fontSize=18;" parent="1" vertex="1">
          <mxGeometry x="280" y="-180" width="60" height="30" as="geometry" />
        </mxCell>
        <mxCell id="ZdWaQ46oYQcRzxQLmsZE-2" value="(0, n)" style="text;html=1;align=center;verticalAlign=middle;whiteSpace=wrap;rounded=0;fontSize=18;" parent="1" vertex="1">
          <mxGeometry x="240" y="40" width="60" height="30" as="geometry" />
        </mxCell>
        <mxCell id="ZdWaQ46oYQcRzxQLmsZE-3" value="(1, 1)" style="text;html=1;align=center;verticalAlign=middle;whiteSpace=wrap;rounded=0;fontSize=18;" parent="1" vertex="1">
          <mxGeometry x="-220" y="-210" width="60" height="30" as="geometry" />
        </mxCell>
        <mxCell id="ZdWaQ46oYQcRzxQLmsZE-5" value="(1, 1)" style="text;html=1;align=center;verticalAlign=middle;whiteSpace=wrap;rounded=0;fontSize=18;" parent="1" vertex="1">
          <mxGeometry x="-140" y="-417.5" width="60" height="30" as="geometry" />
        </mxCell>
        <mxCell id="ZdWaQ46oYQcRzxQLmsZE-6" value="(0, n)" style="text;html=1;align=center;verticalAlign=middle;whiteSpace=wrap;rounded=0;fontSize=18;" parent="1" vertex="1">
          <mxGeometry x="90" y="-300" width="60" height="30" as="geometry" />
        </mxCell>
        <mxCell id="ZdWaQ46oYQcRzxQLmsZE-7" value="(0, 6)" style="text;html=1;align=center;verticalAlign=middle;whiteSpace=wrap;rounded=0;fontSize=18;" parent="1" vertex="1">
          <mxGeometry x="410" y="25" width="60" height="30" as="geometry" />
        </mxCell>
        <mxCell id="ZdWaQ46oYQcRzxQLmsZE-8" value="(1, 1)" style="text;html=1;align=center;verticalAlign=middle;whiteSpace=wrap;rounded=0;fontSize=18;" parent="1" vertex="1">
          <mxGeometry x="680" y="-90" width="60" height="30" as="geometry" />
        </mxCell>
        <mxCell id="ZdWaQ46oYQcRzxQLmsZE-9" value="(1, 1)" style="text;html=1;align=center;verticalAlign=middle;whiteSpace=wrap;rounded=0;fontSize=18;" parent="1" vertex="1">
          <mxGeometry x="670" y="110" width="60" height="30" as="geometry" />
        </mxCell>
        <mxCell id="ZdWaQ46oYQcRzxQLmsZE-10" value="(1, 1)" style="text;html=1;align=center;verticalAlign=middle;whiteSpace=wrap;rounded=0;fontSize=18;" parent="1" vertex="1">
          <mxGeometry x="90" y="90" width="60" height="30" as="geometry" />
        </mxCell>
        <mxCell id="ZdWaQ46oYQcRzxQLmsZE-11" value="(0, n)" style="text;html=1;align=center;verticalAlign=middle;whiteSpace=wrap;rounded=0;fontSize=18;" parent="1" vertex="1">
          <mxGeometry x="-235" y="40" width="60" height="30" as="geometry" />
        </mxCell>
        <mxCell id="ZdWaQ46oYQcRzxQLmsZE-12" value="(0, n)" style="text;html=1;align=center;verticalAlign=middle;whiteSpace=wrap;rounded=0;fontSize=18;" parent="1" vertex="1">
          <mxGeometry x="-370" y="100" width="60" height="30" as="geometry" />
        </mxCell>
        <mxCell id="ZdWaQ46oYQcRzxQLmsZE-14" value="(1, n)" style="text;html=1;align=center;verticalAlign=middle;whiteSpace=wrap;rounded=0;fontSize=18;" parent="1" vertex="1">
          <mxGeometry x="-370" y="340" width="60" height="30" as="geometry" />
        </mxCell>
      </root>
    </mxGraphModel>
  </diagram>
</mxfile>
